<?xml version="1.0" encoding="UTF-8"?>
<svg id="Layer_1" xmlns="http://www.w3.org/2000/svg" version="1.1" viewBox="0 0 1920 1920">
  <!-- Generator: Adobe Illustrator 30.6.0, SVG Export Plug-In . SVG Version: 2.1.4 Build 109)  -->
  <defs>
    <style>
      .st0 {
        fill: #1c0f08;
      }

      .st1 {
        fill: #fdfdfc;
      }
    </style>
  </defs>
  <path d="M0,0h1920v1920H0V0Z"/>
  <path class="st1" d="M1214.64,931.86c7.63,3.37,16.83,9.46,23.81,14.09,103.57,68.73,135.35,197.13,96.63,311.74-25.27,74.49-79.14,135.88-149.73,170.63-34.13,16.77-70.93,27.5-108.73,31.7-30.03,3.53-59.44,2.47-89.65,2.44h-120.6l-168.3.07c-29.56.03-59.26.38-88.79-.17-24.42-.46-36.3-17.98-36.35-40.72-.14-57.76-.14-115.5-.05-173.25l.13-298.87.04-302.79c.02-49.11-.11-98.35.15-147.45.04-7.32.48-14.34,3.6-21.08,3.83-8.37,10.92-14.82,19.62-17.83,11.36-3.82,84.64-1.98,100.71-1.96h167.03s116.35-.03,116.35-.03c28.31,0,55.78-.75,84.01,2.37,102.87,11.37,197.84,74.9,229.94,176.79,19.2.93,35.8,5.97,50.5,18.86,14.67,12.87,23.63,31.04,24.91,50.52,2.43,43.02-30.53,76.39-72.85,78.86-8.88,51.95-46.67,96.95-86.78,128.8,2.87,4.07,4.38,2.56,6.86,6.96.47,3.05-1.43,7.26-2.48,10.35Z"/>
  <path class="st0" d="M1195.57,923.53c4.67-2.5,10.11-6.11,14.69-8.98,2.87,4.07,4.38,2.56,6.86,6.96.47,3.05-1.43,7.26-2.48,10.35-6.43-3.05-12.5-5.6-19.08-8.33Z"/>
  <path d="M806.47,1043.35l136.71.18c29.9-.05,64.93-2.07,93.93,3.78,77.45,15.63,105.55,111.32,50.18,167.72-37.6,35.88-89.45,29.03-137.42,29.02l-143.46.12.06-200.82Z"/>
  <path d="M806.45,677.54l117.69.06c49.05-.04,110.53-7.13,139.79,41.42,22.11,36.68,15.66,82.04-13.42,112.49-37.06,31.37-78.8,25.46-124.34,25.5l-119.67.17-.04-179.63Z"/>
  <path d="M1009.11,903.08c31.19-1.28,57.58,22.8,59.17,53.97,1.58,31.17-22.25,57.8-53.41,59.67-31.58,1.9-58.63-22.32-60.23-53.92-1.6-31.59,22.88-58.42,54.48-59.72Z"/>
  <path d="M1285.95,664.73c26.04-4.81,51.03,12.5,55.68,38.58,4.66,26.08-12.8,50.96-38.91,55.46-25.88,4.46-50.51-12.82-55.12-38.68-4.61-25.86,12.52-50.59,38.35-55.36Z"/>
  <path d="M682.79,1108.28c16.9-2.42,33.8,4.43,44.24,17.94,10.44,13.5,12.83,31.57,6.24,47.32-6.59,15.75-21.13,26.75-38.07,28.8-25.82,3.13-49.34-15.11-52.74-40.89-3.4-25.78,14.59-49.5,40.33-53.17Z"/>
  <path d="M740.27,1250.8c25.81-4.42,50.3,12.98,54.59,38.81,4.29,25.84-13.24,50.23-39.1,54.39-25.66,4.13-49.84-13.26-54.1-38.9s12.99-49.91,38.61-54.31Z"/>
  <path d="M1160.29,767.3c25.27-5.44,50.14,10.72,55.42,36.02,5.3,25.3-11.02,50.07-36.34,55.21-25.13,5.1-49.64-11.04-54.89-36.13-5.25-25.09,10.75-49.71,35.8-55.1Z"/>
  <path d="M1146.86,584.37c24.1-4.23,47.07,11.89,51.28,36,4.21,24.11-11.93,47.06-36.05,51.25-24.08,4.18-47-11.94-51.2-36.01-4.21-24.07,11.89-47.01,35.96-51.23Z"/>
  <path d="M640.8,1347.53c17.16-3.23,33.67,8.11,36.8,25.29,3.13,17.18-8.32,33.62-25.52,36.65-17.05,3-33.33-8.33-36.43-25.37-3.1-17.03,8.13-33.37,25.14-36.57Z"/>
  <path d="M1142.27,980.84c16.08-4.2,32.52,5.45,36.7,21.52,4.19,16.09-5.47,32.51-21.55,36.69-16.07,4.17-32.48-5.47-36.66-21.54-4.19-16.06,5.44-32.48,21.51-36.67Z"/>
  <path class="st1" d="M1370.2,420.71c45.09-5.99,86.52,25.68,92.57,70.78,6.04,45.09-25.58,86.56-70.66,92.66-45.17,6.11-86.72-25.58-92.78-70.75-6.06-45.17,25.69-86.69,70.87-92.69Z"/>
  <path d="M1374.67,447.43c29.92-3.63,57.17,17.52,61.09,47.39,3.91,29.88-16.97,57.33-46.8,61.54-30.25,4.27-58.17-16.97-62.14-47.25-3.97-30.29,17.53-58,47.85-61.68Z"/>
  <path class="st1" d="M438.07,1330.57c44.11-6.31,85,24.26,91.42,68.35,6.42,44.09-24.05,85.06-68.12,91.59-44.23,6.55-85.38-24.05-91.83-68.3-6.45-44.24,24.26-85.31,68.52-91.65Z"/>
  <path d="M444.95,1357.57c29.24-2.68,55.1,18.9,57.67,48.15,2.58,29.25-19.1,55.03-48.36,57.51-29.11,2.46-54.72-19.09-57.29-48.19-2.56-29.1,18.89-54.8,47.98-57.47Z"/>
  <path class="st1" d="M1482.51,250.81c39.6-6.87,77.31,19.57,84.32,59.15,7.02,39.57-19.28,77.37-58.84,84.53-39.75,7.2-77.78-19.27-84.84-59.05-7.05-39.78,19.57-77.72,59.36-84.63Z"/>
  <path d="M1488.87,277.09c25.04-3.43,48.13,14.07,51.6,39.11,3.46,25.04-14.01,48.15-39.04,51.65-25.09,3.5-48.25-14.01-51.72-39.09-3.47-25.09,14.07-48.23,39.16-51.66Z"/>
  <path class="st1" d="M1461.92,712.92c34.41-6.09,67.26,16.79,73.47,51.17,6.22,34.38-16.54,67.31-50.9,73.66-34.54,6.38-67.69-16.52-73.94-51.09-6.24-34.56,16.78-67.62,51.37-73.74Z"/>
  <path d="M1465.55,739.43c19.93-4.17,39.44,8.72,43.42,28.69,3.98,19.97-9.09,39.36-29.1,43.15-19.74,3.74-38.81-9.12-42.74-28.83-3.93-19.71,8.76-38.9,28.42-43.01Z"/>
  <path class="st1" d="M421.14,1544.47c33.54-4.79,64.61,18.55,69.34,52.11,4.74,33.54-18.65,64.58-52.21,69.26-33.48,4.67-64.43-18.66-69.16-52.13-4.73-33.48,18.55-64.45,52.02-69.23Z"/>
  <path d="M423.87,1570.84c18.94-3.36,36.98,9.36,40.2,28.32,3.22,18.96-9.61,36.92-28.59,40.01-18.8,3.07-36.56-9.62-39.75-28.4-3.19-18.79,9.37-36.62,28.13-39.94Z"/>
  <path class="st1" d="M1346.58,846.83c22.83-2.82,43.68,13.22,46.8,36.01,3.12,22.78-12.65,43.85-35.39,47.27-14.97,2.25-30.01-3.73-39.35-15.66-9.34-11.93-11.53-27.96-5.75-41.95,5.78-14,18.66-23.8,33.68-25.66Z"/>
  <path d="M1347.02,873.18c8.49-2.59,17.48,2.24,20.01,10.75,2.52,8.51-2.36,17.46-10.89,19.93-8.45,2.45-17.29-2.38-19.79-10.81-2.5-8.43,2.27-17.3,10.68-19.87Z"/>
  <path class="st1" d="M592.77,1502.12c22.04-2.92,42.33,12.46,45.47,34.47,3.14,22.01-12.04,42.45-34.02,45.81-22.29,3.39-43.07-12.04-46.25-34.36-3.18-22.32,12.46-42.95,34.81-45.92Z"/>
  <path d="M596.29,1527.48c8-1.18,15.44,4.35,16.6,12.36,1.16,8.01-4.4,15.43-12.41,16.57-7.97,1.13-15.36-4.4-16.52-12.38-1.16-7.97,4.36-15.37,12.32-16.55Z"/>
  <path class="st1" d="M487.45,1224.51c18.53-3.27,36.2,9.1,39.46,27.63,3.26,18.53-9.13,36.2-27.66,39.44-18.51,3.24-36.16-9.12-39.41-27.64-3.26-18.52,9.1-36.16,27.61-39.43Z"/>
  <path d="M490.24,1250.08c2.93-1.21,6.29-.68,8.71,1.37,2.42,2.05,3.48,5.29,2.76,8.37-.72,3.09-3.11,5.51-6.18,6.29-4.3,1.07-8.7-1.35-10.09-5.56-1.39-4.21.7-8.77,4.8-10.47Z"/>
  <path class="st1" d="M1228.22,399.58c16.81-3.47,33.24,7.34,36.72,24.14,3.48,16.81-7.33,33.25-24.13,36.73-16.82,3.48-33.26-7.33-36.74-24.14-3.48-16.81,7.33-33.26,24.15-36.73Z"/>
  <path d="M1232.7,423.32c3.58-1.08,7.37.91,8.51,4.48,1.13,3.57-.8,7.38-4.35,8.58-2.34.79-4.93.25-6.77-1.4-1.84-1.66-2.64-4.17-2.1-6.59.54-2.41,2.34-4.35,4.71-5.06Z"/>
  <path class="st1" d="M1456.57,614.28c12.82-1.47,24.42,7.71,25.93,20.53,1.51,12.82-7.64,24.44-20.46,25.99-12.87,1.55-24.55-7.64-26.06-20.51-1.52-12.87,7.71-24.52,20.59-26Z"/>
  <path class="st1" d="M1341.8,341.49c11.85-2.72,23.69,4.54,26.63,16.34,2.95,11.79-4.09,23.77-15.82,26.95-7.8,2.11-16.13-.16-21.77-5.93-5.65-5.77-7.74-14.14-5.47-21.89,2.27-7.75,8.55-13.66,16.43-15.47Z"/>
</svg>